<mxfile host="Electron" modified="2024-03-18T21:34:33.423Z" agent="Mozilla/5.0 (Windows NT 10.0; Win64; x64) AppleWebKit/537.36 (KHTML, like Gecko) draw.io/24.0.4 Chrome/120.0.6099.109 Electron/28.1.0 Safari/537.36" etag="bkZE86yd8hNWQdQo4oRI" version="24.0.4" type="device">
  <diagram name="Page-1" id="47xNZxUSD3sWYIKx5Ayp">
    <mxGraphModel dx="1084" dy="2284" grid="1" gridSize="10" guides="1" tooltips="1" connect="1" arrows="1" fold="1" page="1" pageScale="1" pageWidth="850" pageHeight="1100" math="0" shadow="0">
      <root>
        <mxCell id="0" />
        <mxCell id="1" parent="0" />
        <mxCell id="35t8MaJB0A04CbhdY1rm-17" value="" style="rounded=0;whiteSpace=wrap;html=1;dashed=1;verticalAlign=top;fontStyle=1;fontSize=19;" vertex="1" parent="1">
          <mxGeometry x="580" y="360" width="150" height="217.5" as="geometry" />
        </mxCell>
        <mxCell id="35t8MaJB0A04CbhdY1rm-19" value="&amp;nbsp;2. push&amp;nbsp;" style="edgeStyle=orthogonalEdgeStyle;rounded=0;orthogonalLoop=1;jettySize=auto;html=1;" edge="1" parent="1" source="35t8MaJB0A04CbhdY1rm-16" target="35t8MaJB0A04CbhdY1rm-17">
          <mxGeometry relative="1" as="geometry" />
        </mxCell>
        <mxCell id="35t8MaJB0A04CbhdY1rm-16" value="" style="rounded=0;whiteSpace=wrap;html=1;dashed=1;" vertex="1" parent="1">
          <mxGeometry x="110" y="363.75" width="370" height="210" as="geometry" />
        </mxCell>
        <mxCell id="35t8MaJB0A04CbhdY1rm-1" value="Dev" style="sketch=0;outlineConnect=0;fontColor=#232F3E;gradientColor=none;fillColor=#232F3D;strokeColor=none;dashed=0;verticalLabelPosition=bottom;verticalAlign=top;align=center;html=1;fontSize=12;fontStyle=0;aspect=fixed;pointerEvents=1;shape=mxgraph.aws4.user;" vertex="1" parent="1">
          <mxGeometry x="130" y="474.75" width="59" height="59" as="geometry" />
        </mxCell>
        <mxCell id="35t8MaJB0A04CbhdY1rm-2" value="Dev" style="sketch=0;outlineConnect=0;fontColor=#232F3E;gradientColor=none;fillColor=#232F3D;strokeColor=none;dashed=0;verticalLabelPosition=bottom;verticalAlign=top;align=center;html=1;fontSize=12;fontStyle=0;aspect=fixed;pointerEvents=1;shape=mxgraph.aws4.user;" vertex="1" parent="1">
          <mxGeometry x="215" y="474.75" width="59" height="59" as="geometry" />
        </mxCell>
        <mxCell id="35t8MaJB0A04CbhdY1rm-4" value="Dev" style="sketch=0;outlineConnect=0;fontColor=#232F3E;gradientColor=none;fillColor=#232F3D;strokeColor=none;dashed=0;verticalLabelPosition=bottom;verticalAlign=top;align=center;html=1;fontSize=12;fontStyle=0;aspect=fixed;pointerEvents=1;shape=mxgraph.aws4.user;" vertex="1" parent="1">
          <mxGeometry x="310" y="474.75" width="59" height="59" as="geometry" />
        </mxCell>
        <mxCell id="35t8MaJB0A04CbhdY1rm-5" value="Dev" style="sketch=0;outlineConnect=0;fontColor=#232F3E;gradientColor=none;fillColor=#232F3D;strokeColor=none;dashed=0;verticalLabelPosition=bottom;verticalAlign=top;align=center;html=1;fontSize=12;fontStyle=0;aspect=fixed;pointerEvents=1;shape=mxgraph.aws4.user;" vertex="1" parent="1">
          <mxGeometry x="401" y="473.75" width="59" height="59" as="geometry" />
        </mxCell>
        <mxCell id="35t8MaJB0A04CbhdY1rm-6" value="Dev" style="sketch=0;outlineConnect=0;fontColor=#232F3E;gradientColor=none;fillColor=#232F3D;strokeColor=none;dashed=0;verticalLabelPosition=bottom;verticalAlign=top;align=center;html=1;fontSize=12;fontStyle=0;aspect=fixed;pointerEvents=1;shape=mxgraph.aws4.user;" vertex="1" parent="1">
          <mxGeometry x="130" y="383.75" width="59" height="59" as="geometry" />
        </mxCell>
        <mxCell id="35t8MaJB0A04CbhdY1rm-7" value="Dev" style="sketch=0;outlineConnect=0;fontColor=#232F3E;gradientColor=none;fillColor=#232F3D;strokeColor=none;dashed=0;verticalLabelPosition=bottom;verticalAlign=top;align=center;html=1;fontSize=12;fontStyle=0;aspect=fixed;pointerEvents=1;shape=mxgraph.aws4.user;" vertex="1" parent="1">
          <mxGeometry x="215" y="383.75" width="59" height="59" as="geometry" />
        </mxCell>
        <mxCell id="35t8MaJB0A04CbhdY1rm-8" value="Dev" style="sketch=0;outlineConnect=0;fontColor=#232F3E;gradientColor=none;fillColor=#232F3D;strokeColor=none;dashed=0;verticalLabelPosition=bottom;verticalAlign=top;align=center;html=1;fontSize=12;fontStyle=0;aspect=fixed;pointerEvents=1;shape=mxgraph.aws4.user;" vertex="1" parent="1">
          <mxGeometry x="310" y="383.75" width="59" height="59" as="geometry" />
        </mxCell>
        <mxCell id="35t8MaJB0A04CbhdY1rm-9" value="Dev" style="sketch=0;outlineConnect=0;fontColor=#232F3E;gradientColor=none;fillColor=#232F3D;strokeColor=none;dashed=0;verticalLabelPosition=bottom;verticalAlign=top;align=center;html=1;fontSize=12;fontStyle=0;aspect=fixed;pointerEvents=1;shape=mxgraph.aws4.user;" vertex="1" parent="1">
          <mxGeometry x="400" y="383.75" width="59" height="59" as="geometry" />
        </mxCell>
        <mxCell id="35t8MaJB0A04CbhdY1rm-12" value="&amp;nbsp;1. checkout off main&amp;nbsp;" style="edgeStyle=orthogonalEdgeStyle;rounded=0;orthogonalLoop=1;jettySize=auto;html=1;entryX=0.5;entryY=0;entryDx=0;entryDy=0;" edge="1" parent="1" source="35t8MaJB0A04CbhdY1rm-10" target="35t8MaJB0A04CbhdY1rm-16">
          <mxGeometry x="-0.2115" relative="1" as="geometry">
            <mxPoint as="offset" />
          </mxGeometry>
        </mxCell>
        <mxCell id="35t8MaJB0A04CbhdY1rm-22" style="edgeStyle=orthogonalEdgeStyle;rounded=0;orthogonalLoop=1;jettySize=auto;html=1;entryX=0;entryY=0.5;entryDx=0;entryDy=0;" edge="1" parent="1" source="35t8MaJB0A04CbhdY1rm-10" target="35t8MaJB0A04CbhdY1rm-23">
          <mxGeometry relative="1" as="geometry" />
        </mxCell>
        <mxCell id="35t8MaJB0A04CbhdY1rm-34" value="&amp;nbsp;build&amp;nbsp;" style="edgeLabel;html=1;align=center;verticalAlign=middle;resizable=0;points=[];" vertex="1" connectable="0" parent="35t8MaJB0A04CbhdY1rm-22">
          <mxGeometry x="-0.0957" y="2" relative="1" as="geometry">
            <mxPoint y="2" as="offset" />
          </mxGeometry>
        </mxCell>
        <mxCell id="35t8MaJB0A04CbhdY1rm-10" value="main" style="verticalLabelPosition=top;html=1;verticalAlign=bottom;align=center;strokeColor=none;fillColor=#000000;shape=mxgraph.azure.github_code;pointerEvents=1;labelPosition=center;spacingLeft=0;" vertex="1" parent="1">
          <mxGeometry x="625" y="200" width="60" height="60" as="geometry" />
        </mxCell>
        <mxCell id="35t8MaJB0A04CbhdY1rm-13" value="Unit Test" style="image;aspect=fixed;html=1;points=[];align=center;fontSize=12;image=img/lib/azure2/general/Load_Test.svg;" vertex="1" parent="1">
          <mxGeometry x="621" y="380" width="68" height="66" as="geometry" />
        </mxCell>
        <mxCell id="35t8MaJB0A04CbhdY1rm-14" value="Integration Test" style="image;aspect=fixed;html=1;points=[];align=center;fontSize=12;image=img/lib/azure2/general/Load_Test.svg;" vertex="1" parent="1">
          <mxGeometry x="621" y="477.5" width="68" height="66" as="geometry" />
        </mxCell>
        <mxCell id="35t8MaJB0A04CbhdY1rm-18" value="" style="image;aspect=fixed;html=1;points=[];align=center;fontSize=12;image=img/lib/azure2/general/Bug.svg;" vertex="1" parent="1">
          <mxGeometry x="180" y="380" width="18.44" height="20" as="geometry" />
        </mxCell>
        <mxCell id="35t8MaJB0A04CbhdY1rm-20" value="3. pull request" style="edgeStyle=orthogonalEdgeStyle;rounded=0;orthogonalLoop=1;jettySize=auto;html=1;entryX=0.5;entryY=1;entryDx=0;entryDy=0;entryPerimeter=0;" edge="1" parent="1" source="35t8MaJB0A04CbhdY1rm-17" target="35t8MaJB0A04CbhdY1rm-10">
          <mxGeometry relative="1" as="geometry" />
        </mxCell>
        <mxCell id="35t8MaJB0A04CbhdY1rm-28" style="edgeStyle=orthogonalEdgeStyle;rounded=0;orthogonalLoop=1;jettySize=auto;html=1;endArrow=none;endFill=0;" edge="1" parent="1" source="35t8MaJB0A04CbhdY1rm-21" target="35t8MaJB0A04CbhdY1rm-27">
          <mxGeometry relative="1" as="geometry">
            <Array as="points">
              <mxPoint x="1120" y="69" />
            </Array>
          </mxGeometry>
        </mxCell>
        <mxCell id="35t8MaJB0A04CbhdY1rm-45" style="edgeStyle=orthogonalEdgeStyle;rounded=0;orthogonalLoop=1;jettySize=auto;html=1;" edge="1" parent="1" source="35t8MaJB0A04CbhdY1rm-21" target="35t8MaJB0A04CbhdY1rm-40">
          <mxGeometry relative="1" as="geometry" />
        </mxCell>
        <mxCell id="35t8MaJB0A04CbhdY1rm-21" value="prod" style="rounded=0;whiteSpace=wrap;html=1;" vertex="1" parent="1">
          <mxGeometry x="1090" y="200" width="120" height="60" as="geometry" />
        </mxCell>
        <mxCell id="35t8MaJB0A04CbhdY1rm-25" value="&amp;nbsp;deploy v0.0.1&amp;nbsp;" style="edgeStyle=orthogonalEdgeStyle;rounded=0;orthogonalLoop=1;jettySize=auto;html=1;" edge="1" parent="1" source="35t8MaJB0A04CbhdY1rm-23" target="35t8MaJB0A04CbhdY1rm-21">
          <mxGeometry relative="1" as="geometry" />
        </mxCell>
        <mxCell id="35t8MaJB0A04CbhdY1rm-36" value="&amp;nbsp;v0.0.2&amp;nbsp;" style="edgeStyle=orthogonalEdgeStyle;rounded=0;orthogonalLoop=1;jettySize=auto;html=1;" edge="1" parent="1" source="35t8MaJB0A04CbhdY1rm-23" target="35t8MaJB0A04CbhdY1rm-35">
          <mxGeometry relative="1" as="geometry" />
        </mxCell>
        <mxCell id="35t8MaJB0A04CbhdY1rm-23" value="Github Action" style="shape=image;verticalLabelPosition=bottom;labelBackgroundColor=default;verticalAlign=top;aspect=fixed;imageAspect=0;image=https://static-00.iconduck.com/assets.00/githubactions-icon-2048x2048-ipqow27x.png;" vertex="1" parent="1">
          <mxGeometry x="850" y="200" width="60" height="60" as="geometry" />
        </mxCell>
        <mxCell id="35t8MaJB0A04CbhdY1rm-27" value="feature flag db" style="sketch=0;outlineConnect=0;fontColor=#232F3E;gradientColor=none;fillColor=#232F3D;strokeColor=none;dashed=0;verticalLabelPosition=bottom;verticalAlign=top;align=center;html=1;fontSize=12;fontStyle=0;aspect=fixed;pointerEvents=1;shape=mxgraph.aws4.generic_database;" vertex="1" parent="1">
          <mxGeometry x="1000" y="30" width="59" height="78" as="geometry" />
        </mxCell>
        <mxCell id="35t8MaJB0A04CbhdY1rm-30" style="edgeStyle=orthogonalEdgeStyle;rounded=0;orthogonalLoop=1;jettySize=auto;html=1;entryX=0.75;entryY=0;entryDx=0;entryDy=0;endArrow=none;endFill=0;" edge="1" parent="1" source="35t8MaJB0A04CbhdY1rm-29" target="35t8MaJB0A04CbhdY1rm-21">
          <mxGeometry relative="1" as="geometry" />
        </mxCell>
        <mxCell id="35t8MaJB0A04CbhdY1rm-29" value="Deployment flag SaaS" style="ellipse;shape=cloud;whiteSpace=wrap;html=1;" vertex="1" parent="1">
          <mxGeometry x="1230" y="30" width="120" height="80" as="geometry" />
        </mxCell>
        <mxCell id="35t8MaJB0A04CbhdY1rm-39" style="edgeStyle=orthogonalEdgeStyle;rounded=0;orthogonalLoop=1;jettySize=auto;html=1;exitX=0.75;exitY=1;exitDx=0;exitDy=0;" edge="1" parent="1" source="35t8MaJB0A04CbhdY1rm-21" target="35t8MaJB0A04CbhdY1rm-31">
          <mxGeometry relative="1" as="geometry">
            <Array as="points">
              <mxPoint x="1180" y="501" />
            </Array>
          </mxGeometry>
        </mxCell>
        <mxCell id="35t8MaJB0A04CbhdY1rm-31" value="User" style="sketch=0;outlineConnect=0;fontColor=#232F3E;gradientColor=none;fillColor=#232F3D;strokeColor=none;dashed=0;verticalLabelPosition=bottom;verticalAlign=top;align=center;html=1;fontSize=12;fontStyle=0;aspect=fixed;pointerEvents=1;shape=mxgraph.aws4.user;" vertex="1" parent="1">
          <mxGeometry x="1210" y="471" width="59" height="59" as="geometry" />
        </mxCell>
        <mxCell id="35t8MaJB0A04CbhdY1rm-35" value="pre-prod" style="rounded=0;whiteSpace=wrap;html=1;" vertex="1" parent="1">
          <mxGeometry x="740" y="48" width="120" height="60" as="geometry" />
        </mxCell>
        <mxCell id="35t8MaJB0A04CbhdY1rm-38" style="edgeStyle=orthogonalEdgeStyle;rounded=0;orthogonalLoop=1;jettySize=auto;html=1;" edge="1" parent="1" source="35t8MaJB0A04CbhdY1rm-37" target="35t8MaJB0A04CbhdY1rm-35">
          <mxGeometry relative="1" as="geometry" />
        </mxCell>
        <mxCell id="35t8MaJB0A04CbhdY1rm-37" value="Stake Holders&lt;div&gt;QA&lt;/div&gt;&lt;div&gt;PO&lt;/div&gt;" style="sketch=0;outlineConnect=0;fontColor=#232F3E;gradientColor=none;fillColor=#232F3D;strokeColor=none;dashed=0;verticalLabelPosition=bottom;verticalAlign=top;align=center;html=1;fontSize=12;fontStyle=0;aspect=fixed;pointerEvents=1;shape=mxgraph.aws4.user;" vertex="1" parent="1">
          <mxGeometry x="660" y="-110" width="59" height="59" as="geometry" />
        </mxCell>
        <mxCell id="35t8MaJB0A04CbhdY1rm-40" value="Logging" style="sketch=0;pointerEvents=1;shadow=0;dashed=0;html=1;strokeColor=none;fillColor=#434445;aspect=fixed;labelPosition=right;verticalLabelPosition=middle;verticalAlign=middle;align=left;outlineConnect=0;shape=mxgraph.vvd.log_files;spacingLeft=5;" vertex="1" parent="1">
          <mxGeometry x="1360" y="205" width="40" height="50" as="geometry" />
        </mxCell>
        <mxCell id="35t8MaJB0A04CbhdY1rm-42" style="edgeStyle=orthogonalEdgeStyle;rounded=0;orthogonalLoop=1;jettySize=auto;html=1;exitX=0.25;exitY=1;exitDx=0;exitDy=0;" edge="1" parent="1" source="35t8MaJB0A04CbhdY1rm-21" target="35t8MaJB0A04CbhdY1rm-41">
          <mxGeometry relative="1" as="geometry">
            <Array as="points">
              <mxPoint x="1120" y="501" />
            </Array>
          </mxGeometry>
        </mxCell>
        <mxCell id="35t8MaJB0A04CbhdY1rm-41" value="User" style="sketch=0;outlineConnect=0;fontColor=#232F3E;gradientColor=none;fillColor=#232F3D;strokeColor=none;dashed=0;verticalLabelPosition=bottom;verticalAlign=top;align=center;html=1;fontSize=12;fontStyle=0;aspect=fixed;pointerEvents=1;shape=mxgraph.aws4.user;" vertex="1" parent="1">
          <mxGeometry x="1031" y="471" width="59" height="59" as="geometry" />
        </mxCell>
        <mxCell id="35t8MaJB0A04CbhdY1rm-43" value="95%" style="text;html=1;align=center;verticalAlign=middle;resizable=0;points=[];autosize=1;strokeColor=none;fillColor=none;fontSize=20;fontStyle=1" vertex="1" parent="1">
          <mxGeometry x="1050" y="410" width="60" height="40" as="geometry" />
        </mxCell>
        <mxCell id="35t8MaJB0A04CbhdY1rm-46" style="edgeStyle=orthogonalEdgeStyle;rounded=0;orthogonalLoop=1;jettySize=auto;html=1;" edge="1" parent="1" source="35t8MaJB0A04CbhdY1rm-44" target="35t8MaJB0A04CbhdY1rm-40">
          <mxGeometry relative="1" as="geometry" />
        </mxCell>
        <mxCell id="35t8MaJB0A04CbhdY1rm-44" value="55%" style="text;html=1;align=center;verticalAlign=middle;resizable=0;points=[];autosize=1;strokeColor=none;fillColor=none;fontSize=20;fontStyle=1" vertex="1" parent="1">
          <mxGeometry x="1190" y="410" width="60" height="40" as="geometry" />
        </mxCell>
        <mxCell id="35t8MaJB0A04CbhdY1rm-49" style="edgeStyle=orthogonalEdgeStyle;rounded=0;orthogonalLoop=1;jettySize=auto;html=1;entryX=0.875;entryY=0.5;entryDx=0;entryDy=0;entryPerimeter=0;" edge="1" parent="1" source="35t8MaJB0A04CbhdY1rm-40" target="35t8MaJB0A04CbhdY1rm-29">
          <mxGeometry relative="1" as="geometry">
            <Array as="points">
              <mxPoint x="1380" y="70" />
            </Array>
          </mxGeometry>
        </mxCell>
      </root>
    </mxGraphModel>
  </diagram>
</mxfile>
